<svg width="30" height="30" fill="none" xmlns="http://www.w3.org/2000/svg"><path d="M28.964 15c0 8.017-6.38 14.5-14.232 14.5C6.88 29.5.5 23.017.5 15S6.88.5 14.732.5C22.584.5 28.964 6.983 28.964 15z" stroke="#828282"/><path d="M15.727 22.472h-2.364a.706.706 0 01-.716-.695v-5.171h-1.38a.706.706 0 01-.715-.695v-2.216c0-.383.32-.695.716-.695h1.379v-1.11c0-1.1.356-2.036 1.03-2.707.677-.673 1.623-1.03 2.735-1.03l1.803.004c.394 0 .715.312.715.694v2.058a.706.706 0 01-.716.694H17c-.37 0-.464.073-.484.095-.034.036-.073.14-.073.426V13h1.68c.126 0 .249.03.354.088a.694.694 0 01.369.607l-.001 2.216a.706.706 0 01-.716.694h-1.686v5.172a.706.706 0 01-.716.695zm-2.215-.84h2.065V16.23c0-.256.215-.464.478-.464h1.924l.001-1.926h-1.925a.472.472 0 01-.478-.464v-1.252c0-.328.035-.701.29-.982.308-.338.794-.378 1.133-.378h1.064V8.996l-1.652-.003c-1.789 0-2.9 1.11-2.9 2.898v1.485a.472.472 0 01-.478.464h-1.617v1.926h1.617c.264 0 .478.208.478.464v5.403zm4.701-12.636z" fill="#828282"/></svg>