<svg width="30" height="30" fill="none" xmlns="http://www.w3.org/2000/svg"><path d="M29.143 15c0 8.017-6.38 14.5-14.232 14.5C7.059 29.5.679 23.017.679 15S7.059.5 14.91.5C22.762.5 29.143 6.983 29.143 15z" stroke="#828282"/><path d="M18.289 7.5h-6.757c-2.198 0-3.987 1.821-3.987 4.06v6.88c0 2.238 1.789 4.06 3.988 4.06h6.756c2.199 0 3.988-1.822 3.988-4.06v-6.88c0-2.239-1.79-4.06-3.988-4.06zm3.124 10.94c0 1.754-1.401 3.18-3.124 3.18h-6.757c-1.722 0-3.124-1.426-3.124-3.18v-6.88c0-1.754 1.402-3.18 3.125-3.18h6.756c1.723 0 3.124 1.426 3.124 3.18v6.88z" fill="#828282"/><path d="M14.91 10.899c-2.22 0-4.027 1.84-4.027 4.101 0 2.262 1.807 4.101 4.028 4.101 2.22 0 4.028-1.84 4.028-4.101 0-2.262-1.807-4.101-4.028-4.101zm0 7.323c-1.744 0-3.164-1.445-3.164-3.222s1.42-3.222 3.165-3.222 3.164 1.445 3.164 3.222-1.42 3.222-3.164 3.222zm4.125-8.78c-.656 0-1.19.544-1.19 1.212 0 .668.534 1.212 1.19 1.212.657 0 1.19-.544 1.19-1.212 0-.669-.533-1.212-1.19-1.212zm0 1.544a.33.33 0 01-.326-.332.33.33 0 01.326-.333c.18 0 .327.15.327.333a.33.33 0 01-.327.332z" fill="#828282"/></svg>