<svg width="30" height="30" fill="none" xmlns="http://www.w3.org/2000/svg"><path d="M29.321 15c0 8.017-6.38 14.5-14.232 14.5C7.238 29.5.857 23.017.857 15S7.237.5 15.09.5C22.941.5 29.321 6.983 29.321 15z" stroke="#828282"/><path d="M13.169 21.818c-2.683 0-4.803-.482-5.817-1.321l-.02-.016-.017-.019a.864.864 0 01-.217-.891l.01-.027a.841.841 0 01.766-.542c.686-.012 1.287-.096 1.831-.26-.869-.415-1.472-1.134-1.831-2.175a.784.784 0 01.49-1.019 5.252 5.252 0 01-1.04-1.914l-.006-.021-.004-.022c-.068-.349.084-.707.362-.862a.763.763 0 01.37-.107 4.106 4.106 0 01-.296-.928c-.164-.869-.028-1.74.403-2.588l.1-.205a.548.548 0 01.89-.149l.181.187c1.435 1.546 2.72 2.28 4.941 2.781.1-.876.468-1.691 1.063-2.332a3.685 3.685 0 012.662-1.206h.006c.736 0 1.649.432 2.2.736.474-.159 1.045-.405 1.637-.666a.732.732 0 01.836.151.77.77 0 01.16.83 4.129 4.129 0 01-.147.362c.081.038.156.09.218.154.19.195.269.5.201.776l-.007.027c-.227.751-.663 1.363-1.239 1.747-.096 5.268-3.956 9.52-8.686 9.52zm-4.913-1.86c.956.555 2.777.892 4.913.892 2.053 0 3.99-.906 5.455-2.551 1.477-1.659 2.29-3.861 2.29-6.202v-.026c0-.212.114-.405.297-.505.37-.202.67-.545.866-.985a.547.547 0 01-.532-.223.581.581 0 01-.004-.676c.078-.11.148-.224.21-.342-.51.22-.996.418-1.418.55a.588.588 0 01-.463-.051c-.75-.43-1.45-.687-1.87-.688-1.555.024-2.82 1.393-2.82 3.052a.576.576 0 01-.202.441.543.543 0 01-.46.12c-2.563-.52-4.08-1.297-5.659-2.927a2.932 2.932 0 00-.183 1.672c.106.561.388 1.124.816 1.626a.582.582 0 01.053.68.545.545 0 01-.614.249 2.502 2.502 0 01-.518-.205c.33.736.896 1.417 1.61 1.92a.58.58 0 01.21.659.556.556 0 01-.566.38 2.443 2.443 0 01-.738-.163c.4.836 1.039 1.297 2.022 1.473a.576.576 0 01.165 1.068c-.838.456-1.755.701-2.86.762z" fill="#828282"/></svg>