<svg width="30" height="30" fill="none" xmlns="http://www.w3.org/2000/svg"><path d="M29.5 15c0 8.017-6.38 14.5-14.232 14.5-7.852 0-14.232-6.483-14.232-14.5S7.416.5 15.268.5C23.12.5 29.5 6.983 29.5 15z" stroke="#828282"/><g clip-path="url(#clip0)" fill="#828282"><path d="M17.535 14.326l-3.254-1.813a.583.583 0 00-.592.01.606.606 0 00-.293.524v3.595a.606.606 0 00.598.61.588.588 0 00.283-.074l3.255-1.782a.61.61 0 00.314-.534.61.61 0 00-.31-.536zM14.26 16.19v-2.687l2.433 1.355-2.433 1.332z"/><path d="M22.526 11.998l-.001-.007c-.013-.12-.137-1.195-.65-1.74-.592-.643-1.264-.721-1.587-.759a3.735 3.735 0 01-.073-.009l-.026-.002c-1.948-.145-4.89-.164-4.919-.164h-.005c-.03 0-2.97.02-4.936.164l-.026.002-.069.009c-.32.037-.984.115-1.578.781-.489.54-.63 1.591-.644 1.71l-.002.015c-.004.05-.108 1.246-.108 2.447v1.122c0 1.201.104 2.397.108 2.447v.008c.013.119.137 1.173.648 1.72.557.62 1.262.703 1.64.747.06.007.112.013.147.019l.034.005c1.125.109 4.65.162 4.8.164h.009c.03 0 2.97-.02 4.918-.163l.026-.003.083-.01c.317-.034.979-.105 1.565-.762.488-.54.63-1.591.644-1.71l.002-.015c.004-.05.108-1.246.108-2.447v-1.122c0-1.2-.104-2.397-.108-2.447zm-.756 3.57c0 1.11-.095 2.255-.104 2.36-.036.29-.185.954-.423 1.218-.367.41-.744.451-1.02.481a4.732 4.732 0 00-.091.01c-1.884.14-4.714.16-4.845.162-.146-.003-3.62-.057-4.71-.16a3.665 3.665 0 00-.18-.024c-.323-.037-.764-.089-1.104-.47l-.008-.008c-.234-.248-.379-.87-.415-1.205a31.264 31.264 0 01-.105-2.365v-1.122c0-1.11.095-2.254.104-2.36.044-.342.196-.966.424-1.219.378-.423.777-.47 1.04-.501l.07-.009c1.912-.14 4.762-.16 4.865-.16.102 0 2.952.02 4.846.16l.076.01c.271.031.681.079 1.057.487l.004.004c.233.248.378.88.415 1.223.006.075.104 1.236.104 2.365v1.122z"/></g><defs><clipPath id="clip0"><path fill="#fff" transform="translate(7.902 7.5)" d="M0 0h14.732v15H0z"/></clipPath></defs></svg>